<svg width="190" height="33" viewBox="0 0 190 33" fill="none" xmlns="http://www.w3.org/2000/svg">
<path d="M89.7773 7.08545C90.7909 7.08545 91.8002 7.20472 92.8037 7.44189C93.815 7.68094 94.7411 8.07729 95.5801 8.63037C96.429 9.18107 97.1085 9.93078 97.6182 10.8755C98.1431 11.8318 98.3993 13.0149 98.3994 14.4136V28.4761H93.2754V25.9526C92.9963 26.389 92.6472 26.8021 92.2295 27.1919C91.6755 27.7083 90.9807 28.1217 90.1514 28.4351H90.1504C89.3216 28.7423 88.3563 28.893 87.2598 28.8931C86.0063 28.8931 84.8625 28.6837 83.833 28.2612L83.6289 28.1743L83.627 28.1733C82.5498 27.6812 81.6914 26.9545 81.0576 25.9946L81.0566 25.9937C80.4273 25.0262 80.1192 23.8417 80.1191 22.4536C80.1192 21.2611 80.3394 20.2556 80.7939 19.4507C81.243 18.6556 81.8573 18.0178 82.6338 17.5405C83.3997 17.07 84.2608 16.7163 85.2139 16.478C86.1664 16.2332 87.1502 16.0565 88.165 15.9478H88.166L89.8096 15.769C90.3002 15.713 90.7336 15.66 91.1094 15.6108C91.8537 15.5043 92.3633 15.3485 92.6641 15.1587C92.9418 14.98 93.0869 14.7085 93.0869 14.3062V14.2261L93.084 14.0474C93.0529 13.2264 92.804 12.5936 92.3545 12.1274L92.2549 12.0298C91.7071 11.523 90.9016 11.2525 89.8047 11.2524C88.6408 11.2525 87.7445 11.5078 87.0938 11.9917C86.4327 12.49 85.9955 13.0698 85.7695 13.731L85.7109 13.9019L85.5322 13.8774L80.9805 13.231L80.7324 13.1948L80.8008 12.9546C81.1687 11.667 81.7782 10.5829 82.6318 9.71045C83.4827 8.83188 84.5217 8.17605 85.7451 7.74365C86.9655 7.3034 88.3108 7.08549 89.7773 7.08545ZM44.585 7.08545C47.0372 7.08549 48.996 7.60789 50.4375 8.67725C51.7932 9.67675 52.6652 11.009 53.0508 12.6646L53.1221 13.0005L53.165 13.2329L48.4863 13.7437L48.3018 13.7632L48.252 13.5845C48.1494 13.2185 47.9794 12.8696 47.7393 12.5376L47.6318 12.396L47.6299 12.394C47.3842 12.0761 47.0602 11.8073 46.6523 11.5913L46.4717 11.5024C45.9875 11.277 45.3831 11.1587 44.6514 11.1587C43.6689 11.1588 42.8594 11.372 42.2109 11.7847C41.6203 12.1658 41.332 12.6331 41.3047 13.1938L41.3027 13.3071V13.313C41.2947 13.8506 41.4869 14.2774 41.8838 14.6108C42.3023 14.9546 43.0181 15.254 44.0566 15.4937L47.5791 16.2476C49.5563 16.6739 51.0556 17.3546 52.0479 18.3091C52.9934 19.2106 53.4948 20.373 53.5615 21.7778L53.5693 22.062V22.0649C53.56 23.4114 53.1644 24.6065 52.3809 25.6421L52.2334 25.8315C51.4747 26.7639 50.4533 27.4943 49.1797 28.0278C47.8196 28.5975 46.2635 28.8794 44.5166 28.8794C42.1165 28.8793 40.1335 28.4099 38.584 27.4517L38.2803 27.2524C36.7853 26.2181 35.8542 24.8006 35.4922 23.0122L35.4277 22.6489L35.3916 22.4204L35.6221 22.397L40.376 21.939L40.5664 21.9214L40.6104 22.1079C40.8023 22.9398 41.1913 23.5672 41.7734 24.0054L41.8936 24.0903C42.5473 24.5345 43.4118 24.7661 44.5039 24.7661C45.6335 24.7661 46.5152 24.5338 47.168 24.0903H47.1689C47.8327 23.645 48.1357 23.118 48.1357 22.5073C48.1357 22.0462 47.9831 21.6605 47.6709 21.3403L47.5273 21.2075L47.5254 21.2056C47.1165 20.8541 46.4574 20.5679 45.5215 20.3647L41.9951 19.6245C40.1137 19.2329 38.6642 18.5847 37.6719 17.6636L37.4795 17.4751H37.4785C36.4833 16.4422 35.9937 15.1366 36.0029 13.5776C35.9943 12.2611 36.353 11.1099 37.084 10.1353L37.2256 9.95459C37.9487 9.06402 38.918 8.37487 40.125 7.8833L40.3701 7.78662C41.6085 7.31797 43.015 7.08545 44.585 7.08545ZM67.001 7.08545C68.2989 7.08545 69.5268 7.29568 70.6826 7.71729C71.8525 8.1318 72.8852 8.77748 73.7783 9.65186C74.6843 10.5301 75.3919 11.6449 75.9043 12.9897C76.4189 14.3315 76.6729 15.9218 76.6729 17.7544V19.4673H62.2725C62.3103 20.4972 62.5207 21.3817 62.9004 22.1255C63.3217 22.942 63.9075 23.5649 64.6582 24.0005C65.4101 24.4277 66.2966 24.645 67.3242 24.645C68.013 24.645 68.6306 24.5492 69.1787 24.3608C69.7255 24.1639 70.1975 23.8791 70.5957 23.5063C70.9908 23.1364 71.2915 22.6765 71.4961 22.1226L71.5547 21.9614L76.5225 22.52L76.4648 22.7603C76.1878 23.9203 75.6751 24.9454 74.9258 25.8315L74.7725 26.0073C73.9483 26.9241 72.8944 27.6336 71.6191 28.1382L71.1318 28.313C69.975 28.6925 68.6821 28.8794 67.2568 28.8794C65.2842 28.8794 63.5527 28.4956 62.0693 27.7192L61.7754 27.5591L61.7744 27.5581C60.2377 26.6655 59.055 25.4033 58.2285 23.7778C57.4022 22.1436 56.9932 20.2273 56.9932 18.0366C56.9932 15.8812 57.4028 13.9789 58.2285 12.3364C59.0627 10.6865 60.2298 9.3981 61.7295 8.47803C63.232 7.54727 64.9919 7.0855 67.001 7.08545ZM111.837 7.08545C114.289 7.08546 116.249 7.6078 117.69 8.67725C119.046 9.67671 119.917 11.0092 120.303 12.6646L120.374 13.0005L120.418 13.2329L115.739 13.7437L115.555 13.7632L115.505 13.5845C115.402 13.2184 115.231 12.8696 114.991 12.5376L114.885 12.396L114.882 12.394C114.636 12.0761 114.312 11.8073 113.904 11.5913L113.725 11.5024C113.24 11.2771 112.636 11.1587 111.904 11.1587C110.922 11.1587 110.112 11.3721 109.464 11.7847C108.873 12.1658 108.584 12.6331 108.557 13.1938L108.555 13.3071V13.313C108.547 13.8507 108.74 14.2774 109.137 14.6108C109.555 14.9546 110.27 15.254 111.309 15.4937L114.832 16.2476C116.809 16.6738 118.308 17.3548 119.3 18.3091C120.245 19.2106 120.748 20.373 120.814 21.7778L120.822 22.062V22.0649C120.813 23.4114 120.416 24.6065 119.633 25.6421H119.634C118.862 26.6652 117.791 27.4588 116.433 28.0278C115.073 28.5976 113.517 28.8794 111.77 28.8794C109.369 28.8794 107.386 28.4098 105.837 27.4517L105.532 27.2524C104.037 26.2181 103.106 24.8006 102.744 23.0122L102.68 22.6489L102.644 22.4204L102.875 22.397L107.628 21.939L107.819 21.9214L107.862 22.1079C108.054 22.9399 108.444 23.5672 109.026 24.0054L109.146 24.0903C109.799 24.5345 110.664 24.7661 111.756 24.7661C112.886 24.7661 113.768 24.5339 114.421 24.0903H114.422C115.086 23.645 115.389 23.118 115.389 22.5073C115.389 22.0463 115.236 21.6605 114.924 21.3403L114.779 21.2075L114.778 21.2056C114.369 20.8539 113.71 20.5679 112.773 20.3647L109.247 19.6245C107.366 19.2329 105.916 18.5847 104.924 17.6636L104.732 17.4751H104.731C103.736 16.4422 103.247 15.1367 103.256 13.5776C103.247 12.2611 103.606 11.1099 104.337 10.1353L104.478 9.95459C105.201 9.06389 106.171 8.3749 107.378 7.8833L107.623 7.78662C108.861 7.31804 110.267 7.08546 111.837 7.08545ZM134.374 7.08545C136.298 7.08545 137.993 7.48237 139.45 8.28369L139.739 8.44971C141.257 9.36063 142.429 10.6406 143.255 12.2827L143.406 12.5933C144.14 14.1643 144.504 15.9673 144.504 17.9966C144.504 20.1603 144.09 22.0621 143.255 23.6958V23.6968C142.429 25.33 141.257 26.6054 139.739 27.5161C138.219 28.4285 136.427 28.8794 134.374 28.8794C132.45 28.8794 130.755 28.4827 129.298 27.6812L129.011 27.5161C127.493 26.6054 126.315 25.3297 125.48 23.6968C124.654 22.063 124.245 20.1607 124.245 17.9966C124.245 15.8323 124.655 13.9243 125.48 12.2817C126.315 10.6399 127.493 9.36052 129.011 8.44971C130.531 7.5376 132.322 7.08549 134.374 7.08545ZM181.015 7.08545C183.467 7.08546 185.427 7.6078 186.868 8.67725C188.224 9.67672 189.095 11.0091 189.48 12.6646L189.552 13.0005L189.596 13.2329L184.917 13.7437L184.732 13.7632L184.683 13.5845C184.58 13.2184 184.409 12.8697 184.169 12.5376L184.062 12.396L184.06 12.394C183.814 12.0761 183.49 11.8073 183.082 11.5913L182.902 11.5024C182.418 11.2771 181.814 11.1587 181.082 11.1587C180.1 11.1587 179.29 11.3721 178.642 11.7847C178.051 12.1658 177.762 12.6331 177.734 13.1938L177.732 13.3071V13.313C177.724 13.8507 177.917 14.2774 178.314 14.6108C178.733 14.9546 179.448 15.254 180.486 15.4937L184.01 16.2476C185.987 16.6739 187.486 17.3546 188.479 18.3091C189.424 19.2106 189.925 20.373 189.992 21.7778L190 22.062V22.0649C189.991 23.4114 189.594 24.6065 188.811 25.6421H188.812C188.04 26.6652 186.969 27.4588 185.61 28.0278C184.25 28.5976 182.694 28.8794 180.947 28.8794C178.547 28.8794 176.564 28.4098 175.015 27.4517L174.71 27.2524C173.215 26.2181 172.284 24.8005 171.922 23.0122L171.857 22.6489L171.822 22.4204L172.053 22.397L176.806 21.939L176.997 21.9214L177.04 22.1079C177.232 22.9399 177.622 23.5672 178.204 24.0054L178.323 24.0903C178.977 24.5344 179.842 24.7661 180.934 24.7661C182.063 24.7661 182.946 24.5339 183.599 24.0903H183.6C184.263 23.645 184.566 23.118 184.566 22.5073C184.566 22.0462 184.414 21.6605 184.102 21.3403L183.957 21.2075L183.956 21.2056C183.547 20.8539 182.887 20.5679 181.951 20.3647L178.425 19.6245C176.544 19.2329 175.095 18.5845 174.103 17.6636L173.91 17.4751H173.909C172.914 16.4422 172.424 15.1367 172.434 13.5776C172.425 12.2611 172.784 11.1099 173.515 10.1353L173.655 9.95459C174.378 9.06389 175.348 8.3749 176.556 7.8833L176.801 7.78662C178.039 7.31803 179.445 7.08547 181.015 7.08545ZM87.0156 28.6714L87.1631 28.6724C87.0897 28.6717 87.0169 28.6696 86.9443 28.6675C86.968 28.6682 86.9919 28.6709 87.0156 28.6714ZM87.5654 28.6694C87.5811 28.669 87.5967 28.6689 87.6123 28.6685C87.5967 28.6689 87.5811 28.669 87.5654 28.6694ZM67.8848 28.647C67.6786 28.6555 67.4693 28.6616 67.2568 28.6616L67.8516 28.6499C67.8627 28.6495 67.8737 28.6474 67.8848 28.647ZM111.77 28.6616L112.367 28.6499C112.369 28.6498 112.37 28.649 112.372 28.6489C112.174 28.6567 111.973 28.6616 111.77 28.6616ZM180.947 28.6616L181.545 28.6499C181.547 28.6498 181.548 28.649 181.55 28.6489C181.352 28.6567 181.151 28.6616 180.947 28.6616ZM87.79 28.6606C87.861 28.6572 87.9313 28.6538 88.001 28.6489C87.9313 28.6538 87.861 28.6572 87.79 28.6606ZM44.623 28.6587C44.7903 28.6576 44.9556 28.6553 45.1191 28.6489C44.9556 28.6553 44.7903 28.6576 44.623 28.6587ZM86.4619 28.6421C86.5203 28.6466 86.5788 28.6513 86.6377 28.6548C86.5788 28.6513 86.5203 28.6466 86.4619 28.6421ZM88.165 28.6353C88.2155 28.6309 88.2657 28.6267 88.3154 28.6216C88.2657 28.6267 88.2155 28.6309 88.165 28.6353ZM112.716 28.6294C112.802 28.6239 112.888 28.6198 112.974 28.6128C112.888 28.6198 112.802 28.6239 112.716 28.6294ZM181.879 28.6294C181.972 28.6236 182.064 28.6203 182.155 28.6128C182.064 28.6203 181.972 28.6236 181.879 28.6294ZM45.4775 28.6284C45.5587 28.6232 45.6395 28.6193 45.7197 28.6128C45.6395 28.6193 45.5587 28.6232 45.4775 28.6284ZM86.0117 28.5962C86.073 28.6038 86.1344 28.6122 86.1963 28.6187C86.1344 28.6122 86.073 28.6039 86.0117 28.5962ZM88.5332 28.5962C88.5742 28.5909 88.6148 28.5854 88.6553 28.5796C88.6148 28.5854 88.5742 28.5909 88.5332 28.5962ZM135.659 28.5962C135.699 28.5921 135.739 28.5889 135.778 28.5845C135.739 28.5889 135.699 28.5921 135.659 28.5962ZM182.466 28.5806C182.556 28.5711 182.645 28.5625 182.733 28.5513C182.645 28.5625 182.556 28.5711 182.466 28.5806ZM113.302 28.5796C113.387 28.5705 113.471 28.5619 113.555 28.5513C113.471 28.5619 113.387 28.5705 113.302 28.5796ZM46.0654 28.5776C46.144 28.5692 46.2222 28.5621 46.2998 28.5522C46.2222 28.5621 46.144 28.5692 46.0654 28.5776ZM41.7979 28.4214C42.1067 28.4804 42.4256 28.5288 42.7549 28.5659C42.4256 28.5288 42.1067 28.4804 41.7979 28.4214ZM69.0889 28.5444C69.046 28.5501 69.0031 28.5568 68.96 28.562C69.0031 28.5568 69.046 28.5501 69.0889 28.5444ZM85.5918 28.5337C85.6431 28.5426 85.6944 28.552 85.7461 28.5601C85.6943 28.552 85.6431 28.5426 85.5918 28.5337ZM88.8535 28.5483C88.8971 28.541 88.9404 28.5329 88.9834 28.5249C88.9404 28.5329 88.8972 28.541 88.8535 28.5483ZM183.009 28.5112C183.113 28.4956 183.217 28.4805 183.319 28.4624C183.217 28.4805 183.113 28.4956 183.009 28.5112ZM113.835 28.5103C113.937 28.495 114.038 28.481 114.138 28.4634C114.038 28.481 113.937 28.495 113.835 28.5103ZM46.6035 28.5073C46.6953 28.4934 46.7866 28.4802 46.877 28.4644C46.7866 28.4802 46.6953 28.4934 46.6035 28.5073ZM136.343 28.5054C136.378 28.4995 136.414 28.494 136.449 28.4878C136.414 28.494 136.378 28.4995 136.343 28.5054ZM89.1797 28.4868C89.2063 28.4811 89.2325 28.4742 89.2588 28.4683C89.2325 28.4742 89.2063 28.4811 89.1797 28.4868ZM85.1504 28.4458C85.2058 28.4585 85.2614 28.4713 85.3174 28.4829C85.2614 28.4713 85.2058 28.4585 85.1504 28.4458ZM160.221 7.08545C161.68 7.08545 162.963 7.39817 164.061 8.03076H164.06C165.167 8.66345 166.022 9.57952 166.624 10.7729C167.236 11.9691 167.532 13.4105 167.523 15.0874V28.4761H162.211V15.8423C162.211 14.5818 161.904 13.6037 161.313 12.8853L161.191 12.7446L161.19 12.7437C160.531 12.0172 159.611 11.6441 158.403 11.644C157.584 11.6441 156.863 11.825 156.235 12.1812H156.234C155.618 12.5277 155.13 13.031 154.771 13.6968C154.424 14.3581 154.245 15.1692 154.245 16.1382V28.4761H148.934V7.35498H154.03V10.6079C154.526 9.59396 155.253 8.77165 156.209 8.14502L156.21 8.14404C157.303 7.43398 158.644 7.0855 160.221 7.08545ZM136.656 28.4487C136.694 28.4413 136.732 28.4341 136.77 28.4263C136.732 28.4341 136.694 28.4413 136.656 28.4487ZM183.567 28.4146C183.664 28.3953 183.76 28.3755 183.854 28.354C183.76 28.3755 183.664 28.3953 183.567 28.4146ZM114.399 28.4126C114.492 28.394 114.584 28.3747 114.676 28.354C114.584 28.3747 114.492 28.394 114.399 28.4126ZM47.1572 28.4106C47.2448 28.3931 47.3318 28.3754 47.418 28.356C47.3318 28.3754 47.2448 28.3931 47.1572 28.4106ZM70.0586 28.3774C70.0421 28.3811 70.0253 28.3837 70.0088 28.3872C70.1989 28.3465 70.3859 28.3023 70.5693 28.2524L70.0586 28.3774ZM84.7441 28.3423C84.7977 28.3574 84.8512 28.3731 84.9053 28.3872C84.8512 28.3731 84.7977 28.3574 84.7441 28.3423ZM136.976 28.3813C137.016 28.372 137.057 28.3628 137.098 28.353C137.057 28.3628 137.016 28.372 136.976 28.3813ZM137.299 28.3013C137.335 28.2917 137.371 28.282 137.407 28.272C137.371 28.282 137.335 28.2917 137.299 28.3013ZM39.8193 27.8364C40.2639 28.0226 40.7378 28.1763 41.2412 28.2993C40.7378 28.1763 40.2639 28.0226 39.8193 27.8364ZM114.938 28.2905C115.031 28.2672 115.122 28.2438 115.213 28.2183C115.122 28.2438 115.031 28.2672 114.938 28.2905ZM184.116 28.2905C184.208 28.2672 184.3 28.2438 184.391 28.2183C184.3 28.2438 184.208 28.2672 184.116 28.2905ZM47.7002 28.2866C47.7851 28.2651 47.8696 28.2437 47.9531 28.2202C47.8695 28.2437 47.7851 28.2651 47.7002 28.2866ZM84.3467 28.2183C84.3925 28.2339 84.4381 28.2503 84.4844 28.2651C84.4381 28.2503 84.3925 28.2339 84.3467 28.2183ZM166.896 12.0308C167.174 12.9331 167.31 13.9525 167.304 15.0884L167.305 15.0874C167.311 13.8487 167.148 12.7487 166.816 11.7876L166.896 12.0308ZM137.6 28.2163C137.644 28.2029 137.689 28.1893 137.733 28.1753C137.689 28.1893 137.644 28.2029 137.6 28.2163ZM137.896 28.1226C137.948 28.1053 137.999 28.087 138.05 28.0688C137.999 28.087 137.948 28.1053 137.896 28.1226ZM71.5381 27.9341H71.5391C71.692 27.8736 71.8411 27.8091 71.9873 27.7427C71.8409 27.8092 71.6912 27.8735 71.5381 27.9341ZM184.778 28.103C184.79 28.0993 184.801 28.0951 184.812 28.0913C184.801 28.0951 184.79 28.0993 184.778 28.103ZM138.203 28.0132C138.255 27.9938 138.306 27.9738 138.356 27.9536C138.306 27.9738 138.255 27.9938 138.203 28.0132ZM138.488 27.9009C138.539 27.8797 138.589 27.8575 138.64 27.8354C138.589 27.8575 138.539 27.8797 138.488 27.9009ZM72.1162 27.6812C72.2149 27.6345 72.3127 27.588 72.4082 27.5386C72.3127 27.588 72.2149 27.6345 72.1162 27.6812ZM37.8936 26.6831C38.0557 26.8181 38.2254 26.949 38.4043 27.0728C38.7366 27.3007 39.0927 27.5023 39.4707 27.6812C39.093 27.5023 38.7374 27.3006 38.4053 27.0728C38.2262 26.9488 38.0559 26.8183 37.8936 26.6831ZM72.54 27.4663C72.6359 27.4146 72.7307 27.3627 72.8232 27.3081C72.7307 27.3627 72.6359 27.4146 72.54 27.4663ZM186.896 27.1099C186.758 27.1994 186.615 27.2858 186.468 27.3687C186.615 27.2858 186.758 27.1994 186.896 27.1099ZM72.9326 27.2417C73.0261 27.1846 73.1179 27.1261 73.208 27.0659C73.1179 27.1261 73.0261 27.1845 72.9326 27.2417ZM73.3389 26.9761C73.419 26.9202 73.4979 26.8635 73.5752 26.8052C73.4979 26.8636 73.419 26.9202 73.3389 26.9761ZM73.6895 26.7153C73.7644 26.6565 73.839 26.5979 73.9111 26.5366C73.839 26.5979 73.7643 26.6565 73.6895 26.7153ZM188.186 26.0435C188.079 26.1566 187.968 26.2671 187.853 26.3735C187.968 26.2671 188.079 26.1566 188.186 26.0435ZM74.0479 26.4155C74.1114 26.3588 74.1741 26.3014 74.2354 26.2427C74.1741 26.3014 74.1114 26.3588 74.0479 26.4155ZM35.6426 22.6147C35.8765 24.1178 36.5023 25.359 37.5146 26.3413C36.5028 25.3591 35.8785 24.1183 35.6445 22.6157L40.3965 22.1577V22.1567L35.6426 22.6147ZM76.252 22.7095C75.9647 23.9124 75.4164 24.9631 74.6084 25.8608C74.5312 25.9468 74.4506 26.0296 74.3691 26.1118C74.3982 26.0825 74.4286 26.0547 74.457 26.0249L74.6094 25.8599C75.4171 24.9623 75.9657 23.9122 76.2529 22.7095L71.7002 22.1978L76.252 22.7095ZM189.316 24.3491C189.17 24.6874 188.989 25.0119 188.773 25.3218C188.989 25.0119 189.17 24.6875 189.316 24.3491ZM92.5742 23.188C92.4674 23.3417 92.3503 23.4875 92.2227 23.6255C92.0311 23.8326 91.8164 24.0221 91.5781 24.1938C91.4193 24.3083 91.2499 24.4144 91.0703 24.5132C90.5316 24.8027 89.9196 24.9838 89.2344 25.0562C89.1202 25.0682 89.004 25.0775 88.8857 25.0835C88.7676 25.0895 88.6475 25.0923 88.5254 25.0923C88.1452 25.0923 87.7898 25.0609 87.46 24.9966L87.7988 25.0503C88.0298 25.0789 88.272 25.0933 88.5254 25.0933C89.5038 25.0933 90.3522 24.9001 91.0703 24.5142C91.6986 24.1686 92.2001 23.7269 92.5742 23.189V23.188ZM47.1572 24.3579C46.474 24.7759 45.5893 24.9848 44.5039 24.9849C44.403 24.9849 44.3035 24.9809 44.2061 24.9771C44.304 24.9809 44.4035 24.9858 44.5049 24.9858C45.6627 24.9858 46.5918 24.7476 47.292 24.272L47.1572 24.3579ZM111.756 24.9849C111.652 24.9849 111.55 24.9811 111.449 24.9771C111.55 24.9811 111.652 24.9858 111.756 24.9858C111.901 24.9858 112.042 24.9816 112.18 24.9741L111.756 24.9849ZM180.934 24.9849C180.83 24.9849 180.727 24.9812 180.627 24.9771C180.727 24.9811 180.83 24.9858 180.934 24.9858C181.074 24.9858 181.212 24.9812 181.346 24.9741C181.212 24.9811 181.074 24.9849 180.934 24.9849ZM93.1006 18.7808C92.956 18.8457 92.7876 18.9054 92.5996 18.9604V18.9595C92.2316 19.0698 91.8198 19.1667 91.3652 19.2485C90.9139 19.3298 90.4669 19.4021 90.0244 19.4653L88.8779 19.6265C88.165 19.7233 87.5312 19.8821 86.9756 20.0991C86.4299 20.3123 86.0095 20.606 85.7051 20.9761L85.7031 20.979C85.4112 21.3264 85.2569 21.7845 85.2568 22.3726L85.2598 22.5269C85.2949 23.2841 85.5935 23.8414 86.1455 24.2271C86.7553 24.653 87.5438 24.8735 88.5254 24.8735C89.4739 24.8735 90.2848 24.6869 90.9648 24.3218C91.6521 23.9438 92.1747 23.4494 92.5391 22.8394L92.54 22.8384C92.9139 22.2266 93.1006 21.5605 93.1006 20.8374V18.7808ZM66.8193 24.8442C66.9838 24.856 67.1517 24.8647 67.3232 24.8647C67.4702 24.8647 67.6147 24.8586 67.7559 24.8501C67.615 24.8586 67.4709 24.8638 67.3242 24.8638L66.9336 24.853C66.8953 24.8509 66.8573 24.847 66.8193 24.8442ZM80.71 24.7954C80.7144 24.8078 80.7191 24.8201 80.7236 24.8325C80.7191 24.8201 80.7144 24.8078 80.71 24.7954ZM68.6895 24.7231C68.7383 24.7124 68.7869 24.7019 68.835 24.6899C68.7869 24.7019 68.7383 24.7124 68.6895 24.7231ZM113.976 24.5835C113.874 24.6281 113.768 24.6694 113.659 24.7065L113.976 24.5845C114.078 24.5398 114.176 24.4911 114.271 24.439L113.976 24.5835ZM86.0205 24.4067C86.1022 24.4638 86.1871 24.5169 86.2744 24.5669C86.187 24.5169 86.1023 24.4629 86.0205 24.4058C85.9854 24.3813 85.9512 24.3563 85.918 24.3306C85.9513 24.3565 85.9853 24.3821 86.0205 24.4067ZM65.4951 24.6011C65.5196 24.6088 65.5447 24.6142 65.5693 24.6216C65.5381 24.6122 65.5065 24.6041 65.4756 24.5942L65.4951 24.6011ZM65.0117 24.4185C65.1374 24.4729 65.2658 24.5225 65.3975 24.5669C65.2658 24.5225 65.1374 24.4729 65.0117 24.4185ZM134.401 11.3882C133.321 11.3882 132.439 11.6812 131.739 12.2544C131.038 12.8359 130.506 13.621 130.149 14.6206L130.15 14.6216C129.801 15.6181 129.624 16.738 129.624 17.9829L129.633 18.4409C129.671 19.495 129.844 20.4571 130.149 21.3286C130.506 22.3203 131.038 23.1029 131.74 23.6851C132.44 24.2488 133.321 24.5376 134.401 24.5376C135.454 24.5376 136.318 24.2491 137.009 23.6851C137.71 23.1034 138.236 22.322 138.584 21.3315L138.585 21.3286C138.943 20.3325 139.124 19.2181 139.124 17.9829C139.124 16.8939 138.986 15.9009 138.711 15.0024L138.585 14.6235L138.584 14.6206C138.258 13.6831 137.775 12.9338 137.138 12.3647L137.009 12.2534C136.318 11.6802 135.453 11.3882 134.401 11.3882ZM80.583 24.394C80.5884 24.4136 80.594 24.4332 80.5996 24.4526C80.594 24.4332 80.5884 24.4136 80.583 24.394ZM136.727 24.1528C136.549 24.2617 136.362 24.3547 136.167 24.4341C136.362 24.3547 136.549 24.2617 136.727 24.1528ZM176.827 22.1567L176.826 22.1577C177.042 23.0913 177.5 23.7962 178.2 24.272C177.5 23.7962 177.043 23.0904 176.827 22.1567ZM108.894 24.1802L108.895 24.1792L108.894 24.1802ZM63.8203 23.6655C64.0446 23.8619 64.2866 24.0384 64.5498 24.1909C64.5683 24.2014 64.5878 24.21 64.6064 24.2202L64.5508 24.1899C64.2876 24.0374 64.0447 23.8619 63.8203 23.6655ZM41.584 24.1333C41.6089 24.153 41.6336 24.1729 41.6592 24.1919C41.6336 24.1729 41.6089 24.153 41.584 24.1333ZM131.889 24.0659C131.92 24.0866 131.952 24.1058 131.983 24.1255C131.901 24.0743 131.82 24.0208 131.742 23.9634L131.889 24.0659ZM47.9014 23.7339C47.7951 23.861 47.671 23.9828 47.5273 24.0981C47.671 23.9828 47.7951 23.8611 47.9014 23.7339ZM189.727 21.2739C189.76 21.5274 189.779 21.7904 189.78 22.063C189.776 22.6323 189.702 23.1731 189.556 23.6841C189.702 23.173 189.777 22.6324 189.781 22.063C189.78 21.7903 189.76 21.5274 189.727 21.2739ZM120.485 23.2388C120.455 23.3895 120.42 23.5381 120.378 23.6841C120.42 23.5381 120.455 23.3895 120.485 23.2388ZM107.648 22.1567V22.1577C107.797 22.7996 108.06 23.3328 108.438 23.7583C108.06 23.3327 107.797 22.7987 107.648 22.1567ZM138.308 22.4673C137.995 23.0102 137.608 23.4725 137.148 23.854L137.416 23.6157C137.76 23.2848 138.057 22.9023 138.308 22.4683V22.4673ZM143.336 23.0122C143.25 23.2114 143.157 23.4066 143.06 23.5981C143.032 23.6521 143.004 23.7052 142.976 23.7583C143.004 23.705 143.033 23.6522 143.061 23.5981C143.158 23.4068 143.25 23.2113 143.336 23.0122ZM47.668 21.0396C48.1257 21.4255 48.3544 21.915 48.3545 22.5073L48.3516 22.6372C48.3259 23.0358 48.18 23.3963 47.915 23.7192C48.2086 23.3616 48.3564 22.9578 48.3564 22.5073C48.3563 21.915 48.1276 21.4255 47.6699 21.0396C47.6139 20.9913 47.5532 20.9453 47.4893 20.8999L47.668 21.0396ZM80.3604 23.0405C80.3662 23.1248 80.3735 23.2081 80.3818 23.2905C80.3735 23.2081 80.3661 23.1248 80.3604 23.0405ZM120.55 21.2769C120.583 21.5294 120.602 21.7914 120.604 22.063C120.602 21.7914 120.583 21.5294 120.55 21.2769ZM92.9863 22.4565C93.0233 22.3722 93.0571 22.2869 93.0879 22.2007V22.1997C93.057 22.2862 93.0234 22.3719 92.9863 22.4565ZM80.377 21.6392C80.3516 21.8987 80.3379 22.1703 80.3379 22.4536L80.3418 22.7056C80.343 22.7465 80.3469 22.7871 80.3486 22.8276C80.3434 22.7049 80.3379 22.5801 80.3379 22.4536C80.3379 22.1702 80.3515 21.8987 80.377 21.6392ZM115.588 22.7798C115.589 22.7723 115.59 22.7648 115.591 22.7573C115.59 22.7648 115.589 22.7723 115.588 22.7798ZM129.944 21.4038C130.082 21.7873 130.246 22.1418 130.436 22.4673C130.309 22.2501 130.194 22.0198 130.091 21.7769C130.039 21.6556 129.99 21.5305 129.944 21.4028V21.4038ZM62.0479 19.2485C62.0621 20.4 62.28 21.3923 62.7051 22.2251C62.7126 22.2396 62.7209 22.2537 62.7285 22.2681L62.7061 22.2251C62.281 21.3924 62.0622 20.3997 62.0479 19.2485ZM138.791 21.4028C138.701 21.6588 138.6 21.9022 138.486 22.1323L138.647 21.7778C138.698 21.6564 138.746 21.5317 138.791 21.4038V21.4028ZM80.4248 21.2603C80.4146 21.327 80.4068 21.3949 80.3984 21.4634C80.4069 21.3949 80.4145 21.327 80.4248 21.2603ZM93.3193 20.8374C93.3193 20.933 93.3167 21.0278 93.3105 21.1216C93.3167 21.0281 93.3193 20.9337 93.3193 20.8384V20.8374ZM120.542 21.229C120.532 21.1563 120.521 21.0843 120.508 21.0132C120.521 21.0843 120.532 21.1563 120.542 21.229ZM80.4912 20.897C80.4785 20.956 80.4681 21.0161 80.457 21.0767C80.4682 21.0161 80.4785 20.956 80.4912 20.897ZM53.2676 21.0767C53.266 21.0672 53.2644 21.0578 53.2627 21.0483C53.2644 21.0578 53.266 21.0672 53.2676 21.0767ZM120.495 20.9497C120.484 20.8946 120.473 20.8398 120.461 20.7856C120.473 20.8398 120.484 20.8946 120.495 20.9497ZM47.0625 20.646C47.1933 20.7116 47.3123 20.7827 47.4219 20.856C47.3123 20.7828 47.1933 20.7116 47.0625 20.646ZM53.2217 20.8413C53.2201 20.8341 53.2184 20.827 53.2168 20.8198C53.2184 20.827 53.2201 20.8341 53.2217 20.8413ZM80.583 20.5327C80.561 20.6094 80.5415 20.6876 80.5225 20.7671C80.5415 20.6876 80.5609 20.6094 80.583 20.5327ZM120.443 20.7124C120.429 20.6519 120.413 20.592 120.396 20.5327C120.413 20.592 120.429 20.6519 120.443 20.7124ZM41.1113 19.1851C41.407 19.2673 41.716 19.3434 42.0391 19.4106L45.5674 20.1509C46.0748 20.261 46.5105 20.3979 46.875 20.5591C46.5107 20.3981 46.0753 20.2609 45.5684 20.1509L42.041 19.4106C41.7174 19.3433 41.4075 19.2675 41.1113 19.1851ZM120.378 20.4712C120.362 20.417 120.345 20.3632 120.327 20.3101C120.345 20.3632 120.362 20.417 120.378 20.4712ZM80.6875 20.2104C80.6605 20.2848 80.6352 20.3607 80.6113 20.438C80.6352 20.3607 80.6605 20.2848 80.6875 20.2104ZM189.493 20.2788C189.469 20.2099 189.445 20.1418 189.418 20.0747C189.445 20.1418 189.469 20.21 189.493 20.2788ZM120.305 20.2456C120.284 20.188 120.263 20.1311 120.24 20.0747C120.263 20.1311 120.284 20.188 120.305 20.2456ZM53.0381 20.2026C53.0265 20.1708 53.0142 20.1393 53.002 20.1079C53.0142 20.1393 53.0265 20.1708 53.0381 20.2026ZM80.8164 19.895C80.785 19.9646 80.7548 20.0354 80.7266 20.1079C80.7549 20.0354 80.785 19.9646 80.8164 19.895ZM189.401 20.0327C189.375 19.9676 189.346 19.9037 189.316 19.8403C189.346 19.9037 189.375 19.9676 189.401 20.0327ZM120.222 20.0298C120.2 19.9772 120.178 19.9251 120.154 19.8735C120.178 19.925 120.2 19.9772 120.222 20.0298ZM52.9541 19.9897C52.9425 19.9622 52.9301 19.935 52.918 19.9077C52.9301 19.935 52.9425 19.9622 52.9541 19.9897ZM189.306 19.8179C189.276 19.7545 189.245 19.692 189.212 19.6304C189.245 19.692 189.276 19.7545 189.306 19.8179ZM120.122 19.8042C120.095 19.7465 120.066 19.6896 120.036 19.6333C120.066 19.6896 120.095 19.7465 120.122 19.8042ZM80.9062 19.7036C80.8934 19.7287 80.8825 19.7553 80.8701 19.7808C80.9069 19.7054 80.9438 19.6309 80.9844 19.5591V19.5581L80.9062 19.7036ZM52.8584 19.7778C52.8414 19.7427 52.8236 19.708 52.8057 19.6733C52.8236 19.708 52.8414 19.7427 52.8584 19.7778ZM120.021 19.606C119.99 19.5473 119.957 19.4893 119.923 19.4321C119.957 19.4893 119.99 19.5473 120.021 19.606ZM177.984 12.0513C177.664 12.4094 177.507 12.829 177.513 13.3101C177.504 13.9115 177.724 14.4008 178.173 14.7778C178.631 15.1549 179.385 15.4651 180.436 15.7075L183.963 16.4614C185.92 16.8834 187.375 17.5526 188.326 18.4683C188.683 18.8084 188.974 19.1878 189.199 19.606C189.012 19.2582 188.78 18.9368 188.502 18.6431L188.327 18.4673C187.435 17.609 186.101 16.9679 184.325 16.5435C184.207 16.5151 184.086 16.4878 183.964 16.4614L180.436 15.7075C179.385 15.4652 178.632 15.1548 178.174 14.7778C177.725 14.4008 177.505 13.9115 177.514 13.3101C177.508 12.8287 177.665 12.4087 177.985 12.0503L177.984 12.0513ZM52.751 19.5708C52.7338 19.5396 52.7161 19.5088 52.6982 19.478C52.7162 19.5088 52.7338 19.5396 52.751 19.5708ZM119.901 19.396C119.87 19.3442 119.837 19.2932 119.803 19.2427C119.837 19.2932 119.87 19.3442 119.901 19.396ZM52.6377 19.3765C52.6224 19.3518 52.6066 19.3276 52.5908 19.3032C52.6066 19.3276 52.6224 19.3518 52.6377 19.3765ZM118.965 18.2993C119.028 18.3545 119.089 18.4111 119.148 18.4683C119.385 18.6934 119.592 18.9355 119.771 19.1948C119.637 19.0016 119.489 18.8173 119.324 18.6431C119.268 18.5835 119.21 18.5247 119.149 18.4673C119.03 18.3529 118.903 18.2429 118.769 18.1362L118.965 18.2993ZM52.5088 19.1802C52.4935 19.1582 52.4776 19.1365 52.4619 19.1147C52.4776 19.1365 52.4935 19.1582 52.5088 19.1802ZM39.874 18.7642C40.1465 18.8762 40.4345 18.9798 40.7383 19.0747C40.4345 18.9798 40.1465 18.8763 39.874 18.7642ZM85.2666 16.6899C84.3331 16.9234 83.4931 17.2692 82.748 17.7271C82.3756 17.9559 82.042 18.2226 81.748 18.5278C81.6746 18.6041 81.6037 18.6831 81.5352 18.7642H81.5361C81.879 18.359 82.2835 18.0131 82.749 17.7271C83.494 17.2694 84.3332 16.9243 85.2666 16.6909C85.5022 16.6303 85.7399 16.5732 85.9795 16.521L85.2666 16.6899ZM43.9746 7.31592C42.5713 7.37288 41.3157 7.62983 40.208 8.08545C38.9514 8.5971 37.9679 9.3237 37.2588 10.2661C36.5586 11.1997 36.2127 12.3048 36.2217 13.5796C36.2127 15.0877 36.6852 16.3353 37.6367 17.3228C38.1159 17.8154 38.7259 18.2361 39.4668 18.5854C38.7265 18.2363 38.1166 17.8161 37.6377 17.3237C36.6861 16.3362 36.2147 15.0878 36.2236 13.5796C36.2147 12.3049 36.5606 11.2007 37.2607 10.2671C37.9699 9.32466 38.9524 8.5971 40.209 8.08545C41.4746 7.56485 42.9335 7.30428 44.585 7.3042L43.9746 7.31592ZM51.5371 18.1528C51.6643 18.2546 51.7845 18.3595 51.8975 18.4683C51.9178 18.4877 51.9371 18.5082 51.957 18.5278L51.8975 18.4673C51.7847 18.3588 51.664 18.2544 51.5371 18.1528ZM124.463 17.9966C124.463 18.0978 124.465 18.1984 124.467 18.2983C124.465 18.1984 124.464 18.0977 124.464 17.9966C124.464 17.8631 124.465 17.7306 124.468 17.5991L124.463 17.9966ZM118.109 17.6821C118.268 17.7773 118.418 17.8761 118.561 17.979L118.341 17.8267C118.19 17.7277 118.032 17.6327 117.866 17.5415L118.109 17.6821ZM76.4062 16.4517C76.4372 16.8704 76.4541 17.3047 76.4541 17.7544L76.4443 17.1265C76.4366 16.8972 76.4225 16.6724 76.4062 16.4517ZM117.065 17.1567H117.066H117.065ZM48.7334 16.771C48.856 16.8083 48.9761 16.8465 49.0938 16.8862C48.9761 16.8465 48.856 16.8083 48.7334 16.771ZM76.4033 16.4136C76.3886 16.2198 76.371 16.0294 76.3496 15.8423C76.371 16.0294 76.3886 16.2198 76.4033 16.4136ZM62.082 15.6606C62.0711 15.7606 62.0616 15.8615 62.0557 15.9634H62.0566C62.0625 15.8617 62.0711 15.7605 62.082 15.6606ZM91.9961 15.6587C91.7482 15.725 91.462 15.7823 91.1377 15.8286L91.4111 15.7856C91.6254 15.7487 91.8202 15.7057 91.9961 15.6587ZM67.0693 11.3208C66.11 11.3208 65.2755 11.5536 64.5605 12.0132L64.5596 12.0142C63.8376 12.4698 63.275 13.0697 62.8711 13.8169L62.7588 14.0425C62.5086 14.5725 62.3547 15.1396 62.2949 15.7446H71.5557C71.5245 15.0435 71.3781 14.4091 71.1162 13.8403L70.9834 13.5757L70.9824 13.5747C70.6531 12.9611 70.2105 12.4641 69.6533 12.0806L69.4072 11.9233L69.4062 11.9224C68.7449 11.5239 67.9686 11.3209 67.0693 11.3208ZM139.033 15.3394H139.032H139.033ZM108.995 14.7778C109.453 15.1549 110.207 15.4651 111.258 15.7075L110.878 15.6128C110.512 15.5156 110.187 15.4096 109.904 15.2935C109.81 15.2547 109.721 15.2142 109.636 15.1733C109.381 15.0509 109.167 14.9192 108.995 14.7778ZM43.3428 15.5327C43.5213 15.5858 43.7111 15.6361 43.9121 15.6841C43.7111 15.6361 43.5213 15.5858 43.3428 15.5327ZM76.3271 15.6704C76.309 15.5275 76.2896 15.3865 76.2676 15.2476C76.2897 15.3865 76.309 15.5275 76.3271 15.6704ZM62.1182 15.394C62.1042 15.4822 62.0919 15.571 62.082 15.6606C62.0918 15.571 62.1043 15.4822 62.1182 15.394ZM92.2188 15.5923C92.2645 15.5774 92.309 15.563 92.3516 15.5474C92.309 15.563 92.2645 15.5774 92.2188 15.5923ZM93.3057 14.3062C93.3057 14.5394 93.2622 14.7428 93.1748 14.9155C93.0874 15.0885 92.9562 15.231 92.7812 15.3433C92.7386 15.3702 92.6917 15.3961 92.6426 15.4214C92.5657 15.4609 92.4804 15.4973 92.3877 15.5327C92.5398 15.4747 92.6717 15.4134 92.7812 15.3442C93.1313 15.1198 93.3057 14.7729 93.3057 14.3062ZM42.7656 15.3354C42.8857 15.382 43.0124 15.4278 43.1465 15.4712C43.0124 15.4278 42.8858 15.382 42.7656 15.3354ZM154.164 14.7544C154.118 14.9665 154.084 15.1879 154.061 15.4185C154.084 15.1879 154.118 14.9665 154.164 14.7544ZM42.2256 15.0913C42.2944 15.1281 42.3665 15.1645 42.4424 15.1997C42.3665 15.1645 42.2945 15.1281 42.2256 15.0913ZM76.2451 15.1147C76.222 14.9783 76.1969 14.844 76.1699 14.7114C76.197 14.8439 76.222 14.9783 76.2451 15.1147ZM76.1338 14.5415C76.1031 14.4016 76.0713 14.2638 76.0361 14.1284C76.0713 14.2638 76.1031 14.4016 76.1338 14.5415ZM108.338 13.1812C108.336 13.2236 108.335 13.2666 108.336 13.3101C108.33 13.6858 108.414 14.018 108.587 14.3062C108.414 14.018 108.33 13.6858 108.336 13.3101C108.335 13.2666 108.336 13.2236 108.338 13.1812ZM98.1807 14.4146V14.4136C98.1807 14.2505 98.176 14.0907 98.1689 13.9341C98.1761 14.091 98.1807 14.2511 98.1807 14.4146ZM76.0029 14.0073C75.9669 13.8749 75.929 13.7448 75.8887 13.6167C75.929 13.7447 75.9669 13.8749 76.0029 14.0073ZM62.6777 13.7144C62.6308 13.8022 62.5867 13.8912 62.5449 13.981C62.5867 13.891 62.6317 13.8023 62.6787 13.7144C62.7173 13.6429 62.7584 13.5733 62.7998 13.5044C62.7583 13.5735 62.7164 13.6427 62.6777 13.7144ZM142.584 11.5376C142.754 11.8069 142.912 12.0882 143.06 12.3813C143.264 12.7829 143.444 13.2007 143.597 13.6353C143.52 13.4179 143.437 13.2047 143.348 12.9956C143.303 12.8911 143.257 12.7875 143.209 12.6851C143.161 12.5827 143.112 12.4816 143.061 12.3813C142.913 12.0882 142.754 11.8068 142.584 11.5376ZM98.1494 13.6362C98.1451 13.5792 98.1421 13.5225 98.1367 13.4663C98.1421 13.5225 98.1451 13.5792 98.1494 13.6362ZM47.3564 11.7993C47.5244 11.9394 47.6734 12.0929 47.8027 12.2603C48.0776 12.6058 48.2806 12.9721 48.4111 13.3589L48.4629 13.5249V13.5239C48.3371 13.0759 48.1174 12.6546 47.8037 12.2603C47.6742 12.0926 47.5248 11.9394 47.3564 11.7993ZM75.2891 12.1274C75.4373 12.4266 75.5743 12.7399 75.6992 13.0679C75.7368 13.1659 75.7728 13.2658 75.8076 13.3667C75.8019 13.3502 75.7977 13.3333 75.792 13.3169L75.7002 13.0679C75.5752 12.7398 75.4373 12.4267 75.2891 12.1274ZM125.392 12.9956V12.9966V12.9956ZM98.1074 13.2271C98.0983 13.1534 98.09 13.0804 98.0791 13.0083C98.09 13.0803 98.0983 13.1534 98.1074 13.2271ZM137.256 12.1812C137.578 12.4652 137.865 12.7893 138.111 13.1587C137.865 12.7893 137.578 12.4652 137.256 12.1812ZM187.894 9.92725C188.627 10.7933 189.108 11.8317 189.336 13.0415L188.87 13.0923L189.337 13.0415C189.109 11.8316 188.627 10.7934 187.894 9.92725ZM119.092 10.4165C119.617 11.1762 119.971 12.0517 120.158 13.0415H120.159C120.097 12.7115 120.016 12.3938 119.916 12.0894C119.849 11.8864 119.775 11.6891 119.691 11.4976C119.65 11.4019 119.605 11.3081 119.56 11.2153C119.422 10.9365 119.267 10.6698 119.092 10.4165ZM108.394 12.8101L108.395 12.8091L108.394 12.8101ZM98.0449 12.8091C98.031 12.731 98.018 12.6537 98.002 12.5776C98.0181 12.6537 98.031 12.731 98.0449 12.8091ZM92.7979 12.3296C92.8543 12.4136 92.9061 12.5011 92.9531 12.5923C92.9061 12.5011 92.8543 12.4136 92.7979 12.3296ZM97.958 12.3921C97.9383 12.3102 97.9188 12.2293 97.8965 12.1499C97.9188 12.2293 97.9383 12.3103 97.958 12.3921ZM108.782 12.0806C108.734 12.1362 108.69 12.1929 108.649 12.2515C108.69 12.1929 108.734 12.1363 108.782 12.0806ZM75.2305 12.0151C75.1796 11.9157 75.1287 11.8173 75.0752 11.7212C75.1287 11.8173 75.1796 11.9157 75.2305 12.0151ZM97.8525 12.0044C97.8282 11.9254 97.8034 11.8475 97.7764 11.771C97.8034 11.8475 97.8282 11.9254 97.8525 12.0044ZM136.874 11.8774C136.928 11.9149 136.982 11.9542 137.034 11.9946C136.982 11.9542 136.928 11.9149 136.874 11.8774ZM92.208 11.7065C92.2758 11.7581 92.3412 11.8121 92.4033 11.8696L92.2881 11.7681C92.2621 11.7467 92.2349 11.727 92.208 11.7065ZM156.914 11.646H156.915H156.914ZM178.522 11.6001C178.402 11.6779 178.292 11.7603 178.193 11.8462C178.293 11.76 178.403 11.6781 178.523 11.6001C178.579 11.5647 178.638 11.533 178.695 11.5005C178.637 11.5332 178.578 11.5645 178.522 11.6001ZM136.715 11.7739H136.716H136.715ZM109.105 11.771C109.094 11.7801 109.083 11.7901 109.072 11.7993C109.156 11.7304 109.247 11.6636 109.346 11.6001L109.105 11.771ZM66.0811 11.1909C65.5636 11.2856 65.086 11.4581 64.6465 11.7085C65.086 11.4581 65.5637 11.2857 66.0811 11.1909ZM82.2129 10.5347C81.947 10.8898 81.7139 11.2739 81.5137 11.687C81.7808 11.136 82.1064 10.6367 82.4902 10.189L82.2129 10.5347ZM126.163 11.5269C126.13 11.5784 126.098 11.6307 126.066 11.6831C126.098 11.6307 126.13 11.5784 126.163 11.5269ZM46.9941 11.5376C47.0575 11.5774 47.1185 11.6189 47.1777 11.6616C47.1185 11.6189 47.0575 11.5774 46.9941 11.5376ZM97.7207 11.6235C97.6898 11.5431 97.6581 11.4638 97.624 11.3862C97.6581 11.4638 97.6897 11.5431 97.7207 11.6235ZM74.9941 11.5806C74.9354 11.4793 74.8762 11.3793 74.8145 11.2817C74.8762 11.3793 74.9354 11.4793 74.9941 11.5806ZM126.35 11.2437C126.305 11.3091 126.261 11.376 126.218 11.4429C126.261 11.376 126.305 11.309 126.35 11.2437ZM142.497 11.4038C142.463 11.352 142.429 11.3004 142.395 11.2495C142.429 11.3004 142.463 11.352 142.497 11.4038ZM104.053 10.9985C103.987 11.1261 103.927 11.2563 103.873 11.3892L103.959 11.1929C103.989 11.1275 104.02 11.0625 104.053 10.9985ZM165.67 9.68604C165.957 10.0433 166.21 10.4393 166.429 10.8735V10.8726C166.21 10.4385 165.957 10.0432 165.67 9.68604ZM142.382 11.2319C142.324 11.1475 142.265 11.0639 142.205 10.9819C142.265 11.0639 142.324 11.1475 142.382 11.2319ZM126.538 10.9819C126.481 11.0597 126.424 11.1383 126.368 11.2183C126.424 11.1383 126.481 11.0597 126.538 10.9819ZM74.7549 11.1919C74.6904 11.0928 74.6253 10.9951 74.5576 10.8999C74.6253 10.9951 74.6904 11.0928 74.7549 11.1919ZM179.757 11.0884C179.643 11.1156 179.533 11.1463 179.425 11.1812C179.533 11.1463 179.643 11.1156 179.757 11.0884ZM153.811 11.0884H153.812V7.57373H153.811V11.0884ZM126.71 10.7554C126.659 10.8194 126.611 10.885 126.562 10.9507C126.611 10.885 126.659 10.8194 126.71 10.7554ZM44.9297 10.9458C44.9362 10.9461 44.9427 10.9465 44.9492 10.9468C44.9408 10.9464 44.9323 10.9452 44.9238 10.9448L44.9297 10.9458ZM142.17 10.9351C142.123 10.8718 142.075 10.8093 142.026 10.7476C142.075 10.8093 142.123 10.8718 142.17 10.9351ZM59.4404 10.8188C59.4197 10.8456 59.3994 10.8728 59.3789 10.8999C59.3994 10.8728 59.4197 10.8456 59.4404 10.8188ZM97.0391 10.3501C97.1412 10.4969 97.2363 10.6509 97.3281 10.8101C97.2363 10.6509 97.1412 10.4969 97.0391 10.3501ZM74.4697 10.7808C74.4072 10.6961 74.3445 10.6122 74.2793 10.5308C74.3445 10.6122 74.4072 10.6961 74.4697 10.7808ZM141.971 10.6782C141.928 10.6253 141.885 10.5728 141.842 10.521C141.885 10.5728 141.928 10.6253 141.971 10.6782ZM59.6289 10.5845C59.6043 10.6142 59.58 10.6442 59.5557 10.6743C59.58 10.6442 59.6043 10.6142 59.6289 10.5845ZM126.913 10.5093C126.875 10.5547 126.837 10.6007 126.799 10.647C126.837 10.6007 126.875 10.5547 126.913 10.5093ZM59.8301 10.3501C59.8025 10.3811 59.7752 10.4124 59.748 10.4438C59.7752 10.4124 59.8025 10.3811 59.8301 10.3501ZM104.647 10.0923C104.601 10.1495 104.555 10.2072 104.511 10.2661C104.467 10.3246 104.425 10.3841 104.384 10.4438L104.511 10.2671C104.555 10.208 104.601 10.1497 104.647 10.0923ZM74.1924 10.4253C74.1283 10.348 74.0636 10.272 73.9971 10.1978C74.0636 10.272 74.1283 10.348 74.1924 10.4253ZM127.145 10.2466C127.093 10.3024 127.043 10.3593 126.993 10.4165C127.043 10.3593 127.093 10.3024 127.145 10.2466ZM141.752 10.4165C141.708 10.3661 141.664 10.3163 141.619 10.2671C141.664 10.3163 141.708 10.3661 141.752 10.4165ZM127.332 10.0493C127.275 10.1077 127.219 10.167 127.163 10.2271C127.219 10.167 127.275 10.1077 127.332 10.0493ZM60.0693 10.0913C60.0271 10.1353 59.9848 10.1792 59.9434 10.2241C59.9848 10.1792 60.0271 10.1353 60.0693 10.0913ZM141.571 10.2153C141.519 10.1593 141.467 10.1039 141.414 10.0493C141.467 10.1039 141.519 10.1593 141.571 10.2153ZM96.9316 10.2036C96.8959 10.1554 96.8611 10.1069 96.8242 10.0601C96.8611 10.1069 96.8959 10.1554 96.9316 10.2036ZM173.825 10.0923C173.814 10.1063 173.803 10.1211 173.792 10.1353C173.849 10.0635 173.907 9.99247 173.968 9.92334L173.825 10.0923ZM73.626 9.80908C73.712 9.89252 73.7945 9.97997 73.877 10.0679C73.8473 10.0362 73.8192 10.0032 73.7891 9.97217L73.626 9.80908C73.519 9.70437 73.4098 9.60334 73.2988 9.50537C73.4098 9.60332 73.5191 9.70436 73.626 9.80908ZM60.2529 9.90479C60.2188 9.93829 60.185 9.97226 60.1514 10.0063C60.185 9.97226 60.2188 9.93829 60.2529 9.90479ZM127.604 9.78174C127.535 9.84597 127.468 9.91158 127.401 9.97803C127.468 9.91159 127.535 9.84596 127.604 9.78174ZM141.341 9.9751C141.288 9.92261 141.235 9.87093 141.182 9.81982C141.235 9.87093 141.288 9.92261 141.341 9.9751ZM96.7246 9.93994C96.6787 9.88472 96.6326 9.83001 96.585 9.77686C96.6326 9.83 96.6787 9.88473 96.7246 9.93994ZM127.792 9.61182C127.729 9.66789 127.665 9.72387 127.604 9.78174C127.665 9.72388 127.729 9.66788 127.792 9.61182ZM141.137 9.77686C141.069 9.71362 141.001 9.65141 140.932 9.59033C141.001 9.65141 141.069 9.71363 141.137 9.77686ZM106.569 8.50928C106.429 8.58669 106.294 8.66732 106.162 8.75146C105.965 8.87766 105.777 9.01149 105.6 9.15283C105.362 9.34139 105.143 9.54378 104.939 9.75928L105.095 9.60107C105.518 9.18346 106.009 8.81908 106.569 8.50928ZM96.4863 9.67139C96.4431 9.62556 96.4 9.57985 96.3555 9.53564C96.4 9.57984 96.4431 9.62557 96.4863 9.67139ZM140.696 9.39014C140.776 9.45547 140.854 9.52233 140.932 9.59033C140.854 9.52233 140.776 9.45548 140.696 9.39014ZM128.077 9.36865C128.005 9.42723 127.934 9.4876 127.864 9.54834C127.934 9.48761 128.005 9.42722 128.077 9.36865ZM83.457 9.25244C83.3544 9.33529 83.2552 9.42204 83.1572 9.51025C83.2552 9.42204 83.3544 9.3353 83.457 9.25244ZM186.993 9.05127C187.16 9.18603 187.319 9.32604 187.469 9.47217L187.238 9.25732C187.159 9.18693 187.077 9.1188 186.993 9.05127ZM73.25 9.46533C73.1544 9.38222 73.0585 9.30032 72.96 9.22217C73.0585 9.3003 73.1544 9.38224 73.25 9.46533ZM96.2256 9.41162C96.1793 9.36856 96.1326 9.32608 96.085 9.28467C96.1326 9.32607 96.1793 9.36857 96.2256 9.41162ZM60.9834 9.26416C60.9305 9.30568 60.878 9.34748 60.8262 9.39014C60.878 9.34749 60.9305 9.30568 60.9834 9.26416ZM128.319 9.1792C128.237 9.24108 128.157 9.30414 128.077 9.36865C128.157 9.30415 128.237 9.24108 128.319 9.1792ZM140.67 9.36865C140.591 9.30426 140.51 9.24098 140.429 9.1792C140.51 9.24098 140.591 9.30426 140.67 9.36865ZM163.75 8.10986C163.818 8.14561 163.885 8.18209 163.951 8.22021C164.352 8.44908 164.718 8.71614 165.051 9.02197C164.829 8.81789 164.592 8.63123 164.34 8.46143C164.277 8.41907 164.213 8.37763 164.148 8.3374C164.084 8.29718 164.018 8.2583 163.951 8.22021C163.885 8.18211 163.818 8.14559 163.75 8.10986ZM117.816 9.05127V9.05029V9.05127ZM83.7705 9.01416C83.664 9.09124 83.559 9.17006 83.457 9.25244C83.559 9.17006 83.664 9.09125 83.7705 9.01416ZM95.9756 9.19287C95.9232 9.14969 95.8704 9.10719 95.8164 9.06592C95.8704 9.10719 95.9232 9.1497 95.9756 9.19287ZM129.123 8.63818C130.419 7.8605 131.921 7.42188 133.63 7.32471C133.386 7.33859 133.146 7.35943 132.91 7.38721C132.792 7.4011 132.675 7.41671 132.56 7.43408C132.328 7.4688 132.101 7.51048 131.878 7.55908C131.767 7.58336 131.656 7.60947 131.547 7.63721C131.328 7.69281 131.113 7.75519 130.902 7.82471C130.797 7.85933 130.694 7.896 130.591 7.93408C130.075 8.12504 129.586 8.35947 129.123 8.63721L128.849 8.80811C128.672 8.92256 128.5 9.04223 128.334 9.16748C128.585 8.9784 128.849 8.80266 129.123 8.63818ZM140.413 9.16748C140.338 9.11095 140.262 9.05579 140.185 9.00146C140.262 9.05579 140.338 9.11095 140.413 9.16748ZM72.8701 9.15381C72.78 9.08432 72.6893 9.0161 72.5967 8.95068C72.6893 9.01607 72.78 9.08434 72.8701 9.15381ZM175.34 8.75146C175.143 8.87767 174.955 9.01149 174.777 9.15283C174.955 9.0115 175.143 8.87766 175.34 8.75146ZM134.374 7.3042C136.394 7.3042 138.145 7.74943 139.626 8.63818C139.809 8.74806 139.987 8.86303 140.16 8.98389C140.075 8.92402 139.988 8.86528 139.899 8.80811L139.626 8.63721C139.163 8.35945 138.674 8.12503 138.158 7.93408C138.055 7.8959 137.951 7.85942 137.846 7.82471C137.635 7.75532 137.421 7.69272 137.202 7.63721C137.093 7.60947 136.982 7.58336 136.871 7.55908C136.202 7.41325 135.495 7.32992 134.75 7.30908L134.374 7.3042ZM95.4609 8.81299C95.5367 8.86211 95.6096 8.91485 95.6826 8.96729C95.6586 8.95005 95.6356 8.93143 95.6113 8.91455L95.4609 8.81201C95.3624 8.74706 95.2621 8.68502 95.1611 8.62451C95.2622 8.68506 95.3624 8.748 95.4609 8.81299ZM84.1406 8.76221C84.0549 8.81676 83.9717 8.87446 83.8887 8.93213C83.9717 8.87445 84.0549 8.81676 84.1406 8.76221ZM72.5596 8.92529C72.4514 8.84976 72.342 8.77654 72.2305 8.70654C72.342 8.77651 72.4514 8.8498 72.5596 8.92529ZM84.5264 8.53271C84.4309 8.58596 84.3376 8.64194 84.2451 8.69873C84.3376 8.64193 84.4309 8.58597 84.5264 8.53271ZM72.1621 8.66553C72.0642 8.60542 71.9656 8.54662 71.8652 8.49072C71.9656 8.54659 72.0642 8.60545 72.1621 8.66553ZM185.918 8.33643C186.094 8.43011 186.263 8.53076 186.426 8.63721C186.263 8.53076 186.094 8.43011 185.918 8.33643ZM116.74 8.33643C116.902 8.42272 117.058 8.51567 117.209 8.61279C117.058 8.51566 116.902 8.42273 116.74 8.33643ZM95.082 8.57959C95.0057 8.53502 94.9293 8.49079 94.8516 8.44873C94.9293 8.4908 95.0057 8.53502 95.082 8.57959ZM49.8779 8.56299C49.8441 8.54193 49.8107 8.52004 49.7764 8.49951C49.8107 8.52004 49.8441 8.54193 49.8779 8.56299ZM63.8652 7.74951C63.2123 7.9507 62.5983 8.22041 62.0225 8.55811C62.5983 8.22047 63.2123 7.9506 63.8652 7.74951ZM84.9121 8.33154C84.8095 8.38165 84.7088 8.43392 84.6094 8.48779C84.7087 8.43391 84.8095 8.38165 84.9121 8.33154ZM71.7725 8.44092C71.6765 8.3891 71.5797 8.33854 71.4814 8.29053C71.5797 8.33852 71.6765 8.38913 71.7725 8.44092ZM49.6553 8.43018C49.6013 8.39941 49.5474 8.36788 49.4922 8.33838C49.5475 8.36787 49.6013 8.39942 49.6553 8.43018ZM94.7852 8.41357C94.7093 8.3734 94.6329 8.3342 94.5557 8.29639C94.6329 8.33421 94.7093 8.37339 94.7852 8.41357ZM85.3252 8.14404C85.2242 8.18674 85.1245 8.23079 85.0264 8.27686C85.1245 8.23078 85.2242 8.18674 85.3252 8.14404ZM116.607 8.26904C116.559 8.24469 116.511 8.22021 116.462 8.19678C116.511 8.22021 116.559 8.24469 116.607 8.26904ZM185.785 8.26904C185.737 8.24469 185.689 8.22021 185.64 8.19678C185.689 8.22021 185.737 8.24469 185.785 8.26904ZM49.3271 8.25439C49.2918 8.23673 49.2565 8.21883 49.2207 8.20166C49.2565 8.21883 49.2918 8.23673 49.3271 8.25439ZM71.376 8.24072C71.2726 8.19203 71.1684 8.14465 71.0625 8.1001C71.1684 8.14464 71.2726 8.19205 71.376 8.24072ZM94.4395 8.24072C94.3643 8.20534 94.2883 8.17136 94.2119 8.13818C94.2883 8.17137 94.3643 8.20533 94.4395 8.24072ZM185.501 8.1333C185.439 8.10547 185.377 8.0777 185.314 8.05127C185.377 8.0777 185.439 8.10547 185.501 8.1333ZM116.316 8.12939C116.261 8.10424 116.204 8.07918 116.147 8.05518C116.204 8.07918 116.261 8.10424 116.316 8.12939ZM49.0391 8.11865C48.9962 8.09954 48.9537 8.07947 48.9102 8.06104C48.9537 8.07947 48.9962 8.09955 49.0391 8.11865ZM94.1367 8.10498C94.0474 8.06726 93.9572 8.03133 93.8662 7.99658C93.9572 8.03134 94.0474 8.06725 94.1367 8.10498ZM85.5967 8.03271C85.5525 8.04964 85.5094 8.06889 85.4658 8.08643C85.5819 8.03975 85.6995 7.99302 85.8193 7.95068L85.5967 8.03271ZM110.06 7.41357C109.306 7.51125 108.601 7.67508 107.944 7.90283C108.601 7.67509 109.306 7.51119 110.06 7.41357ZM177.122 7.90186L177.121 7.90283L177.122 7.90186ZM67.9434 7.34326C68.8724 7.4207 69.7611 7.61462 70.6094 7.92432C70.7372 7.96961 70.8629 8.01889 70.9873 8.06982C70.9324 8.04737 70.8778 8.02282 70.8223 8.00146L70.6104 7.92334C69.6205 7.562 68.5754 7.35912 67.4756 7.31396L67.9434 7.34326ZM185.201 8.00537C185.133 7.978 185.064 7.95106 184.994 7.92529C185.064 7.95106 185.133 7.97799 185.201 8.00537ZM116.017 8.00244C115.951 7.97626 115.885 7.95 115.818 7.92529C115.885 7.94999 115.951 7.97627 116.017 8.00244ZM48.7412 7.99268C48.6906 7.97261 48.6394 7.95327 48.5879 7.93408C48.6394 7.95326 48.6906 7.97262 48.7412 7.99268ZM93.4785 7.85889C93.5914 7.89588 93.7031 7.93473 93.8135 7.97607C93.5874 7.89145 93.3563 7.81591 93.1201 7.74951L93.4785 7.85889ZM160.221 7.3042C161.113 7.3042 161.933 7.42316 162.682 7.66162C162.532 7.61389 162.379 7.5709 162.224 7.53271C162.146 7.51364 162.067 7.4957 161.988 7.479C161.593 7.39554 161.179 7.34171 160.747 7.31787L160.221 7.3042ZM184.884 7.88525C184.817 7.86165 184.749 7.83906 184.681 7.81689C184.749 7.83906 184.817 7.86165 184.884 7.88525ZM115.699 7.8833C115.638 7.86164 115.576 7.84026 115.513 7.81982C115.576 7.84026 115.638 7.86164 115.699 7.8833ZM48.4248 7.87549C48.3744 7.85793 48.3237 7.84048 48.2725 7.82373C48.3237 7.84047 48.3744 7.85793 48.4248 7.87549ZM86.7383 7.66846C87.3667 7.50687 88.0265 7.39808 88.7178 7.34424C88.0265 7.39814 87.3667 7.50681 86.7383 7.66846ZM184.534 7.771C184.465 7.74989 184.395 7.72914 184.324 7.70947C184.395 7.72914 184.465 7.74989 184.534 7.771ZM115.347 7.76807C115.279 7.74754 115.211 7.72766 115.142 7.7085C115.211 7.72766 115.279 7.74754 115.347 7.76807ZM48.082 7.76416C48.0268 7.7475 47.9712 7.73109 47.915 7.71533C47.9712 7.73108 48.0268 7.74751 48.082 7.76416ZM178.59 7.51807C178.295 7.57321 178.008 7.6387 177.729 7.71533C178.008 7.63872 178.295 7.57318 178.59 7.51807ZM64.8301 7.50732C64.5686 7.55879 64.3129 7.62081 64.0625 7.69189C64.3129 7.62085 64.5686 7.55875 64.8301 7.50732ZM184.217 7.68018C184.13 7.65715 184.042 7.63468 183.953 7.61377C184.042 7.63468 184.13 7.65714 184.217 7.68018ZM115.034 7.6792C114.951 7.65715 114.867 7.63582 114.781 7.61572C114.867 7.63582 114.951 7.65715 115.034 7.6792ZM47.7764 7.67725C47.6975 7.65644 47.6177 7.63674 47.5371 7.61768C47.6177 7.63673 47.6975 7.65645 47.7764 7.67725ZM92.0469 7.50732C92.2828 7.54971 92.5185 7.59914 92.7539 7.65479L92.4297 7.58154C92.3022 7.55473 92.1745 7.53026 92.0469 7.50732ZM183.854 7.59131C183.78 7.57468 183.705 7.55863 183.63 7.54346C183.705 7.55864 183.78 7.57468 183.854 7.59131ZM114.67 7.58936C114.601 7.57387 114.531 7.55963 114.46 7.54541C114.531 7.55963 114.601 7.57387 114.67 7.58936ZM47.4082 7.5874C47.3475 7.57391 47.2862 7.56184 47.2246 7.54932C47.2862 7.56183 47.3475 7.57392 47.4082 7.5874ZM114.271 7.50928C114.215 7.49894 114.158 7.48953 114.101 7.47998C114.158 7.48953 114.215 7.49894 114.271 7.50928ZM183.45 7.50928C183.393 7.49888 183.336 7.48959 183.278 7.47998C183.336 7.48959 183.393 7.49888 183.45 7.50928ZM47.0049 7.50635C46.9657 7.49924 46.9263 7.49257 46.8867 7.48584C46.9263 7.49257 46.9657 7.49924 47.0049 7.50635ZM160.221 7.3042C159.835 7.30421 159.464 7.32499 159.109 7.36768C159.021 7.37834 158.933 7.39048 158.846 7.40381C158.674 7.43025 158.505 7.4626 158.341 7.49951C158.92 7.36966 159.547 7.3042 160.221 7.3042ZM91.3115 7.39697C91.5237 7.42264 91.7355 7.45437 91.9473 7.49072C91.7355 7.45437 91.5237 7.42265 91.3115 7.39697ZM179.751 7.35889C179.428 7.38741 179.114 7.42891 178.809 7.47998C179.114 7.42894 179.428 7.38738 179.751 7.35889ZM113.909 7.44873C113.798 7.43219 113.686 7.4175 113.572 7.40381C113.686 7.4175 113.798 7.43219 113.909 7.44873ZM182.353 7.36182C182.604 7.38419 182.849 7.41319 183.087 7.44873C182.849 7.41319 182.604 7.38418 182.353 7.36182ZM46.6523 7.44775C46.5456 7.43188 46.4375 7.41802 46.3281 7.40479C46.4375 7.41801 46.5456 7.43189 46.6523 7.44775ZM65.5684 7.38916C65.4686 7.4014 65.3697 7.41529 65.2715 7.43018C65.4832 7.39813 65.6983 7.37182 65.917 7.35205L65.5684 7.38916ZM46.2979 7.40088C46.1812 7.38705 46.063 7.37461 45.9434 7.36377C46.063 7.3746 46.1812 7.38706 46.2979 7.40088ZM113.554 7.40088C113.43 7.38622 113.305 7.37313 113.179 7.36182C113.305 7.37313 113.43 7.38622 113.554 7.40088ZM91.2197 7.38623C91.1221 7.37513 91.0244 7.36578 90.9268 7.35693C91.0244 7.36577 91.1221 7.37513 91.2197 7.38623ZM44.5918 7.3042C45.0398 7.30436 45.4701 7.32246 45.8828 7.35791C45.6075 7.33424 45.3242 7.31802 45.0332 7.31006L44.5918 7.3042ZM111.837 7.3042C112.288 7.3042 112.722 7.32208 113.138 7.35791C112.862 7.33413 112.578 7.31805 112.286 7.31006L111.837 7.3042ZM181.014 7.3042C181.465 7.3042 181.9 7.32206 182.315 7.35791C182.039 7.33413 181.756 7.31805 181.464 7.31006L181.015 7.3042H181.014ZM90.8887 7.35303C90.7741 7.34301 90.6596 7.33455 90.5449 7.32764C90.6596 7.33455 90.7741 7.34301 90.8887 7.35303ZM111.837 7.3042C111.436 7.3042 111.046 7.31939 110.668 7.3501C111.046 7.31942 111.436 7.3042 111.837 7.3042ZM181.002 7.3042C180.606 7.30452 180.222 7.31987 179.849 7.3501C180.222 7.31991 180.606 7.30451 181.002 7.3042ZM67.001 7.3042C66.7595 7.3042 66.5219 7.31114 66.2881 7.32471C66.5217 7.31117 66.7597 7.3042 67.001 7.3042Z" fill="white"/>
<path d="M24.6289 11.2271C24.6289 9.15359 22.948 7.47266 20.8744 7.47266C18.2825 7.47266 16.1813 9.57383 16.1813 12.1657V28.5916C16.1813 30.9243 18.0724 32.8154 20.4051 32.8154C22.7379 32.8154 24.6289 30.9243 24.6289 28.5916V11.2271Z" fill="#F4901E"/>
<path d="M22.5984 14.7461C24.5216 13.6357 25.213 11.1971 24.1588 9.24252C23.0605 7.20618 20.4972 6.47938 18.4935 7.6362L16.3914 8.84983L3.65893 16.2009C1.73569 17.3113 1.04427 19.7499 2.09849 21.7045C3.19679 23.7408 5.76014 24.4676 7.76382 23.3108L22.5984 14.7461Z" fill="url(#paint0_linear_105_22)"/>
<path d="M16.18 8.97557L18.4937 7.63836C20.497 6.48052 23.0609 7.20684 24.1593 9.24335C25.2132 11.1975 24.522 13.6355 22.5992 14.7456L16.18 18.4517L16.18 8.97557Z" fill="url(#paint1_linear_105_22)"/>
<path d="M1.23465 3.62866V13.971L8.60167 9.86953C9.66981 9.27486 10.332 8.14826 10.332 6.92573V4.40789C10.332 1.97348 8.35855 0 5.92414 0H5.40375C4.00644 0 2.69068 0.657881 1.8523 1.77573C1.45138 2.31028 1.23465 2.96046 1.23465 3.62866Z" fill="url(#paint2_linear_105_22)"/>
<defs>
<linearGradient id="paint0_linear_105_22" x1="19.1051" y1="13.3084" x2="18.111" y2="25.4454" gradientUnits="userSpaceOnUse">
<stop stop-color="#C25A10"/>
<stop offset="1" stop-color="#F4901E"/>
</linearGradient>
<linearGradient id="paint1_linear_105_22" x1="22.7512" y1="16.2253" x2="18.7404" y2="7.83915" gradientUnits="userSpaceOnUse">
<stop stop-color="#F4A245"/>
<stop offset="1" stop-color="#FBA935" stop-opacity="0.47"/>
</linearGradient>
<linearGradient id="paint2_linear_105_22" x1="1.23465" y1="3.03609" x2="10.332" y2="10.9349" gradientUnits="userSpaceOnUse">
<stop stop-color="#F68D1A"/>
<stop offset="1" stop-color="#EE7823" stop-opacity="0.8"/>
</linearGradient>
</defs>
</svg>
